<svg width="512" height="512" viewBox="0 0 100 100" fill="none" xmlns="http://www.w3.org/2000/svg">
<rect width="100" height="100" fill="#0C0A09"/>
<path d="M32.968 94V92.464L47.56 91.44H50.12L64.712 92.464V94H32.968ZM45.768 94C45.8533 90.3307 45.896 86.192 45.896 81.584C45.9813 76.976 46.024 72.1973 46.024 67.248C46.024 62.2987 46.024 57.52 46.024 52.912V47.92C46.024 43.4827 46.024 38.832 46.024 33.968C46.024 29.104 45.9813 24.4107 45.896 19.888C45.896 15.3653 45.8533 11.312 45.768 7.728H51.912C51.7413 11.312 51.6133 15.3653 51.528 19.888C51.528 24.4107 51.528 29.104 51.528 33.968C51.528 38.832 51.528 43.4827 51.528 47.92V52.912C51.528 57.52 51.528 62.2987 51.528 67.248C51.528 72.1973 51.528 76.976 51.528 81.584C51.6133 86.192 51.7413 90.3307 51.912 94H45.768ZM16.2 30.512L17.736 7.728H80.072L81.48 30.512H79.944L75.08 8.88L77.768 10.032H19.912L22.728 8.88L17.864 30.512H16.2Z" fill="#B3B3B3"/>
<path d="M47.736 85.536C44.344 85.536 41.176 85.056 38.232 84.096C35.352 83.136 32.888 81.952 30.84 80.544L31.608 65.952H33.144L37.08 82.848L32.856 80.544V79.008C34.712 80.096 36.376 80.992 37.848 81.696C39.32 82.336 40.824 82.816 42.36 83.136C43.96 83.392 45.752 83.52 47.736 83.52C50.552 83.52 53.048 83.04 55.224 82.08C57.4 81.12 59.096 79.584 60.312 77.472C61.592 75.36 62.232 72.576 62.232 69.12C62.232 66.624 61.688 64.544 60.6 62.88C59.512 61.152 58.04 59.68 56.184 58.464C54.392 57.248 52.44 56.16 50.328 55.2L46.872 53.568C44.44 52.352 42.072 51.008 39.768 49.536C37.464 48 35.576 46.112 34.104 43.872C32.696 41.568 31.992 38.688 31.992 35.232C31.992 31.52 32.824 28.416 34.488 25.92C36.216 23.36 38.52 21.44 41.4 20.16C44.28 18.816 47.448 18.144 50.904 18.144C54.104 18.144 56.888 18.56 59.256 19.392C61.624 20.16 63.704 21.28 65.496 22.752L65.112 36.576H63.576L59.352 20.736L63.864 22.656L64.248 25.152C62.072 22.912 59.896 21.536 57.72 21.024C55.608 20.448 53.336 20.16 50.904 20.16C48.536 20.16 46.328 20.576 44.28 21.408C42.296 22.24 40.664 23.648 39.384 25.632C38.168 27.552 37.56 30.144 37.56 33.408C37.56 35.84 38.104 37.92 39.192 39.648C40.28 41.312 41.72 42.752 43.512 43.968C45.368 45.184 47.352 46.304 49.464 47.328L52.824 48.96C55.384 50.176 57.816 51.552 60.12 53.088C62.488 54.56 64.408 56.448 65.88 58.752C67.416 60.992 68.184 63.904 68.184 67.488C68.184 71.2 67.384 74.432 65.784 77.184C64.184 79.872 61.848 81.952 58.776 83.424C55.768 84.832 52.088 85.536 47.736 85.536Z" fill="#EEEEEE"/>
</svg>
